<svg aria-hidden="true" style="position: absolute; width: 0; height: 0; overflow: hidden;" version="1.1"
   xmlns="http://www.w3.org/2000/svg" xmlns:xlink="http://www.w3.org/1999/xlink">
   <defs>

      <!-- Иконка огня  для секций Header, Guarantee, Footer -->

      <symbol id="icon-fire" viewBox="0 0 23 32">
         <path d="M21.908 16.593c-0.284-0.635-0.675-1.261-1.247-1.983-1.442-1.813-1.882-5.857-1.887-5.896-0.020-0.194-0.156-0.354-0.337-0.412-0.186-0.058-0.386-0.005-0.518 0.141-1.721 1.925-0.997 4.897-0.606 6.085 0.108 0.325 0.225 0.708 0.308 1.096 0.636 3.137-0.592 4.558-0.88 4.844-0.279 0.078-0.469 0.039-0.645-0.15-0.606-0.664-0.807-2.841-0.523-5.678 0.059-0.577 0.044-1.096-0.039-1.581-0.598-3.486-2.791-5.722-3.349-6.507-1.535-2.269-1.691-6.046-1.696-6.080-0.005-0.179-0.108-0.339-0.269-0.417-0.156-0.078-0.347-0.068-0.494 0.034-2.562 1.741-2.342 5.935-1.985 8.276 0.083 0.543 0.244 1.096 0.523 1.794 0.992 2.497-0.196 5.721-0.205 5.75s-0.020 0.053-0.024 0.082c-0.152 0.795-0.406 1.27-0.689 1.27-0.029 0-0.059-0.005-0.093-0.015-0.347-0.073-0.528-0.441-0.533-0.761-0.020-4.136-4.17-5.527-4.214-5.542-0.186-0.058-0.391-0.005-0.518 0.145-0.132 0.15-0.156 0.359-0.068 0.533 0.049 0.102 0.205 0.548 0.098 2.124-0.093 1.416-0.352 2.817-0.768 4.16-0.988 3.219-0.831 6.269-0.821 6.415 0.759 8.257 12.635 9.704 19.683 5.052 0.772-0.509 1.403-1.091 1.868-1.731 2.601-3.588 1.071-8.461-0.068-11.050zM3.844 24.481c0.015 0.267-0.191 0.494-0.46 0.509h-0.029c-0.259 0-0.474-0.199-0.489-0.456-0.044-0.708-0.034-1.45 0.020-2.255 0.020-0.267 0.254-0.465 0.523-0.451 0.269 0.019 0.474 0.252 0.455 0.519-0.054 0.766-0.064 1.464-0.020 2.133zM4.084 20.186c-0.029 0.247-0.24 0.427-0.484 0.427-0.020 0-0.039 0-0.064-0.005-0.264-0.034-0.455-0.272-0.425-0.538l0.235-1.871c0.034-0.262 0.274-0.451 0.548-0.422 0.269 0.034 0.46 0.276 0.425 0.543l-0.235 1.867z">
         </path>
         <path d="M18.601 6.633c-0.267-0.041-0.45-0.288-0.408-0.553 0.030-0.197 0.207-1.205 0.686-1.713 0.185-0.196 0.493-0.206 0.691-0.022s0.207 0.49 0.022 0.685c-0.203 0.215-0.376 0.829-0.433 1.197-0.041 0.262-0.287 0.445-0.558 0.405z">
         </path>
         <path d="M0.778 9.048c-0.094-0.361-0.326-0.955-0.549-1.149-0.203-0.177-0.223-0.483-0.045-0.684s0.486-0.222 0.69-0.045c0.527 0.458 0.802 1.445 0.852 1.638 0.067 0.259-0.091 0.523-0.352 0.59-0.267 0.067-0.529-0.094-0.595-0.349z">
         </path>
      </symbol>


      <!--  Header -->

      <symbol id="icon-burger" viewBox="0 0 48 32">
         <path stroke-linejoin="miter" stroke-linecap="butt" stroke-miterlimit="4" stroke-width="4.5714" d="M0 2.286h48"></path>
         <path stroke-linejoin="miter" stroke-linecap="butt" stroke-miterlimit="4" stroke-width="4.5714" d="M0 16h48"></path>
         <path stroke-linejoin="miter" stroke-linecap="butt" stroke-miterlimit="4" stroke-width="4.5714" d="M0 29.714h48"></path>
      </symbol>

      <symbol id="icon-close-btn" viewBox="0 0 32 32">
         <path fill="none" stroke-linejoin="miter" stroke-linecap="butt" stroke-miterlimit="4" stroke-width="3.5556" d="M1.778 30.222l28.444-28.444"></path>
         <path fill="none" stroke-linejoin="miter" stroke-linecap="butt" stroke-miterlimit="4" stroke-width="3.5556" d="M30.222 30.222l-28.444-28.444"></path>
      </symbol>

      <!--  Advantages -->

      <symbol id="icon-border" viewBox="0 0 61 63">
         <path d="M59.8235 9.73529V1.5H1V61.5H59.8235V53.2647" fill-opacity="0" stroke-width="2" />
      </symbol>

      <symbol id="icon-methods" viewBox="0 0 31 32">
         <path fill="#ff6b09" style="fill: var(--color1, #ff6b09)" d="M24.79 5.099h-10.278c-0.669 0-1.213 0.544-1.213 1.212v4.25l-7.636 3.202c-0.086 0.036-0.145 0.118-0.152 0.211s0.040 0.183 0.12 0.231l0.974 0.582v6.205c-0.498 0.113-0.872 0.559-0.872 1.091v0.598c0 0.137 0.111 0.248 0.249 0.248h1.744c0.137 0 0.249-0.111 0.249-0.248v-0.598c0-0.532-0.374-0.977-0.872-1.091v-5.908l0.77 0.46c-0.024 0.177-0.003-0.309-0.011 2.889 0 1.051 2.695 1.614 5.437 1.647v4.842c0 0.25 0.077 0.483 0.208 0.676 0.218 0.322 0.587 0.535 1.005 0.535h10.278c0.669 0 1.212-0.543 1.212-1.211-0 0.033-0.001-1.026 0-18.611-0-0.659-0.546-1.212-1.212-1.212zM7.477 22.084v0.35h-1.246v-0.35c0-0.344 0.279-0.624 0.622-0.624 0.344 0 0.625 0.28 0.625 0.624zM24.79 25.635h-10.278c-0.247 0-0.464-0.125-0.593-0.314-0.077-0.114-0.122-0.251-0.122-0.399v-1.678h11.707v1.679c0 0.389-0.325 0.712-0.713 0.712zM25.503 22.747h-11.707v-2.665c1.339-0.015 5.441-0.31 5.441-1.648-0.001-2.009 0.004-2.824-0.006-2.893l2.233-1.336c0.080-0.048 0.127-0.137 0.12-0.231s-0.065-0.175-0.152-0.211l-7.636-3.202v-2.075h11.707v14.261zM13.547 16.785c-1.379 0-4.035 0.178-5.189 0.931 0.007-2.302-0.080-2.152 0.204-2.347 0.717-0.527 2.767-0.895 4.985-0.895 0.968 0 5.192 0.266 5.192 1.159v2.084c-1.165-0.76-3.807-0.931-5.192-0.931zM13.796 6.311c0-0.394 0.321-0.714 0.715-0.714h10.278c0.395 0 0.714 0.325 0.714 0.714v1.679h-11.707v-1.679zM13.547 10.996l7.239 3.035-1.794 1.072c-0.954-0.945-4.108-1.128-5.445-1.128-1.339 0-4.494 0.184-5.445 1.128l-1.794-1.073 7.239-3.035zM8.359 18.434c0-0.402 1.782-1.152 5.189-1.152 3.409 0 5.192 0.75 5.192 1.152s-1.783 1.153-5.192 1.153c-3.407 0-5.189-0.75-5.189-1.153z"></path>
         <path fill="#ff6b09" style="fill: var(--color1, #ff6b09)" d="M19.65 23.618c-0.453 0-0.822 0.368-0.822 0.822s0.369 0.822 0.822 0.822c0.454 0 0.823-0.369 0.823-0.822s-0.369-0.822-0.823-0.822zM19.65 24.765c-0.179 0-0.325-0.146-0.325-0.325s0.146-0.325 0.325-0.325c0.179 0 0.325 0.146 0.325 0.325s-0.146 0.325-0.325 0.325z"></path>
         <path fill="#ff6b09" style="fill: var(--color1, #ff6b09)" d="M20.599 6.545h-1.897v0.497h1.897v-0.497z"></path>
         <path fill="none" stroke="#ff6b09" style="stroke: var(--color1, #ff6b09)" stroke-linejoin="miter" stroke-linecap="butt" stroke-miterlimit="4" stroke-width="1.0159" d="M30.476 4.793v-4.192h-29.968v30.538h29.968v-4.192"></path>
      </symbol>

      <symbol id="icon-guarantee" viewBox="0 0 31 32">
         <path fill="#ff6b09" style="fill: var(--color1, #ff6b09)" d="M7.059 14.761c0 0.231-0.35 0.231-0.35 0 0-4.905 3.97-8.884 8.866-8.884 4.898 0 8.866 3.978 8.866 8.884 0 0.231-0.347 0.231-0.347 0 0-3.316-5.438-3.318-5.438 0 0 0.231-0.358 0.231-0.358 0 0-3.307-5.446-3.307-5.446 0 0 0.231-0.358 0.231-0.358 0 0-3.301-5.435-3.324-5.435 0zM12.526 13.474c0.094-1.909 0.393-3.62 0.829-4.926 0.347-1.038 0.787-1.827 1.285-2.269-3.738 0.409-6.765 3.249-7.441 6.931 1.287-1.86 4.259-1.711 5.327 0.264zM18.271 13.388c-0.096-1.835-0.387-3.477-0.806-4.729-1.080-3.24-2.7-3.24-3.78 0-0.419 1.252-0.707 2.894-0.806 4.729 1.162-1.978 4.23-1.978 5.391 0zM23.952 13.21c-0.674-3.683-3.7-6.522-7.441-6.931 0.5 0.443 0.938 1.231 1.285 2.269 0.435 1.307 0.735 3.018 0.829 4.926 1.074-1.986 4.054-2.104 5.327-0.264z"></path>
         <path fill="#ff6b09" style="fill: var(--color1, #ff6b09)" d="M14.412 18.827v-1.804c-0.324 0.216-0.58 0.55-0.58 0.957 0 0.396 0.259 0.659 0.58 0.847zM14.762 19.387c-0.622-0.285-1.277-0.619-1.277-1.408 0-0.814 0.617-1.221 1.277-1.525v2.933z"></path>
         <path fill="#ff6b09" style="fill: var(--color1, #ff6b09)" d="M16.739 21.548v1.825c0.329-0.218 0.586-0.554 0.586-0.961 0-0.401-0.264-0.671-0.586-0.864zM16.392 20.986c0.624 0.289 1.283 0.633 1.283 1.426 0 0.816-0.622 1.223-1.283 1.525v-2.951z"></path>
         <path fill="#ff6b09" style="fill: var(--color1, #ff6b09)" d="M16.739 14.969c1.432 0.331 2.903 1.405 2.903 3.010 0 1.374-2.317 1.323-2.317 0 0-0.409-0.257-0.745-0.586-0.961v2.567c1.325 0.434 2.907 1.212 2.907 2.827 0 1.607-1.471 2.678-2.907 3.008-0.006 1.529-2.323 1.527-2.327-0.002-0.816-0.189-1.526-0.57-2.039-1.076-0.538-0.533-0.856-1.202-0.856-1.93 0-1.353 2.315-1.353 2.315 0 0 0.405 0.255 0.738 0.58 0.954v-2.565c-1.314-0.426-2.905-1.227-2.905-2.827 0-1.607 1.471-2.678 2.905-3.008 0.006-1.529 2.323-1.527 2.327 0.002zM14.761 14.973v0.279c-1.363 0.271-2.907 1.145-2.907 2.722 0 1.516 1.695 2.196 2.907 2.571v3.389c-0.655-0.3-1.277-0.705-1.277-1.523 0-0.893-1.62-0.893-1.62 0 0 0.631 0.28 1.214 0.753 1.68 0.601 0.596 1.329 0.879 2.143 1.040v0.281c0 1.076 1.63 1.076 1.63 0v-0.279c1.367-0.273 2.905-1.147 2.905-2.722 0-1.531-1.691-2.19-2.905-2.573v-3.387c0.657 0.3 1.283 0.705 1.283 1.527 0 0.87 1.618 0.906 1.618 0 0-1.575-1.536-2.452-2.901-2.724v-0.281c0-1.076-1.63-1.076-1.63 0z"></path>
         <path fill="none" stroke="#ff6b09" style="stroke: var(--color1, #ff6b09)" stroke-linejoin="miter" stroke-linecap="butt" stroke-miterlimit="4" stroke-width="1.0323" d="M30.968 4.767v-4.25h-30.452v30.968h30.452v-4.25"></path>
      </symbol>

      <symbol id="icon-autors" viewBox="0 0 31 32">
         <path fill="#ff6b09" style="fill: var(--color1, #ff6b09)" d="M7.16 26.219c2.22 0 15.063 0 17.28 0 0.086-1.975-0.056-5.251-1.267-6.81l-0.044-0.056-2.648-1.332c0.058-0.194 0.086-0.372 0.097-0.503 0.013-0.157-0.009-0.305-0.064-0.438-0.437-1.047-1.361-1.598-1.869-1.833 0.155-0.313 0.255-0.649 0.303-0.992 0.288-0.081 0.519-0.31 0.595-0.615l0.309-1.258c0.055-0.222 0.020-0.452-0.097-0.648-0.051-0.084-0.116-0.155-0.19-0.216 0.871-1.983-0.588-3.853-0.668-3.952-1.581-1.712-3.577-1.392-3.683-1.373-2.881 0.605-3.993 2.817-3.366 5.413-0.186 0.206-0.264 0.494-0.195 0.776l0.311 1.259c0.075 0.303 0.305 0.53 0.591 0.613 0.088 0.628 0.354 1.197 0.743 1.655v0.997c-4.135 2.122-1.515 0.768-4.828 2.448-0.007 0.031-1.555 1.68-1.325 6.567l0.014 0.299zM23.84 25.592h-2.844v-1.197l1.881-4.315c0.942 1.567 0.977 4.56 0.963 5.512zM19.958 17.464c-0.11 1.263-0.801 0.881-1.228 1.855-0.336-0.37-0.437-0.813-0.346-1.288 0.163-0.872-0.368-1.131-0.237-2.047l0.020-0.021v-0.003c0.011-0.013 0.116-0.138 0.146-0.177 1.125 0.492 1.667 1.406 1.645 1.681zM13.922 16.471c0.522 0.363 1.153 0.578 1.831 0.578 0.639 0 1.245-0.186 1.765-0.529 0.072 0.72 0.353 0.864 0.253 1.394-0.019 0.098-0.029 0.195-0.035 0.291l-1.937 2.187-2.476-2.797 0.598-0.313v-0.811zM13.143 13.794v-1.213c0-0.447 0-2.218 0-2.131 0.301-0.559 0.712-0.964 1.223-1.207 1.368 0.775 2.942 1.933 3.998 3.098-0.001 1.483 0.004 1.487-0.006 1.609l-0.001 0.008c-0.082 1.347-1.188 2.463-2.605 2.463-1.378 0-2.522-1.084-2.605-2.477-0.004-0.050-0.005-0.1-0.005-0.151zM12.758 17.898l3.043 3.437 2.043-2.307c0.047 0.135 0.112 0.262 0.187 0.385l-2.23 2.794-3.325-4.167 0.282-0.142zM18.987 13.29v-0.968c0.027-0.031 0.26-0.298 0.232-0.267 0.013 0.49 0.066-0.088-0.232 1.235zM15.33 6.809c0.124 0.008 1.784-0.253 3.096 1.167 0.052 0.065 1.12 1.444 0.691 2.953-0.147-0.671-0.403-1.532-0.807-1.942l-0.442 0.441c0.399 0.405 0.662 1.64 0.762 2.28-1.833-1.921-4.196-3.138-4.229-3.158-0.119 0.074-1.119 0.264-1.845 1.679l-0.035 0.068v1.039c-0.031 0-0.123 0.001-0.092 0.001-0.462-2.233 0.422-4.007 2.902-4.528zM12.363 11.982l0.157 0.638v0.671l-0.261-1.060c-0.038-0.158 0.078-0.218 0.104-0.249zM11.905 18.326l3.895 4.881 2.635-3.303c0.287 0.257 0.425 0.294 1.032 0.607l-0.205-0.697c-0.052-0.177 0.154-0.461 0.278-0.591 0.278-0.151 0.509-0.366 0.682-0.632l2.15 1.082-2.001 4.59v1.328h-9.146v-1.329l-2.002-4.589 2.68-1.348zM8.723 20.082l1.881 4.314v1.197h-2.844c-0.014-0.952 0.021-3.943 0.963-5.511z"></path>
         <path fill="none" stroke="#ff6b09" style="stroke: var(--color1, #ff6b09)" stroke-linejoin="miter" stroke-linecap="butt" stroke-miterlimit="4" stroke-width="1.0323" d="M30.968 4.767v-4.25h-30.452v30.968h30.452v-4.25"></path>
      </symbol>

      <!-- Інші іконки у How do we do it -->
      <symbol id="icon-insurance" viewBox="0 0 42 48">
         <path
            d="M0.812652 20.6131C0.812652 21.1484 0 21.1484 0 20.6131C0 9.23114 9.23114 0 20.6131 0C32 0 41.2263 9.23114 41.2263 20.6131C41.2263 21.1484 40.4185 21.1484 40.4185 20.6131C40.4185 12.9197 27.7762 12.9148 27.7762 20.6131C27.7762 21.1484 26.944 21.1484 26.944 20.6131C26.944 12.9392 14.2822 12.9392 14.2822 20.6131C14.2822 21.1484 13.4501 21.1484 13.4501 20.6131C13.4501 12.9538 0.812652 12.9002 0.812652 20.6131ZM13.5231 17.6253C13.7421 13.1971 14.438 9.22628 15.4501 6.19465C16.2579 3.78589 17.2798 1.9562 18.438 0.92944C9.74696 1.87835 2.71046 8.46715 1.13869 17.0122C4.13139 12.6959 11.0414 13.0414 13.5231 17.6253ZM26.8808 17.4258C26.6569 13.1679 25.9805 9.35766 25.0073 6.45255C22.4963 -1.06569 18.7299 -1.06569 16.219 6.45255C15.2457 9.35766 14.5742 13.1679 14.3455 17.4258C17.0462 12.837 24.18 12.837 26.8808 17.4258ZM40.0876 17.0122C38.5207 8.46715 31.4842 1.87835 22.7883 0.92944C23.9513 1.9562 24.9684 3.78589 25.7762 6.19465C26.7883 9.22628 27.4842 13.1971 27.7032 17.6253C30.1995 13.017 37.1289 12.7445 40.0876 17.0122Z"
         />
         <path
            d="M17.9075 30.045V25.8592C17.1533 26.3605 16.5596 27.1344 16.5596 28.0786C16.5596 28.9985 17.163 29.6069 17.9075 30.045ZM18.7202 31.3445C17.2749 30.6826 15.7518 29.9087 15.7518 28.0786C15.7518 26.1902 17.1874 25.2459 18.7202 24.5402V31.3445Z"
         />
         <path
            d="M23.3188 36.36V40.5936C24.0828 40.0875 24.6813 39.309 24.6813 38.3649C24.6813 37.4355 24.0682 36.8077 23.3188 36.36ZM22.511 35.0559C23.9611 35.7274 25.4939 36.5255 25.4939 38.3649C25.4939 40.2579 24.0487 41.2019 22.511 41.9026V35.0559Z"
         />
         <path
            d="M23.3188 21.0948C26.6472 21.8637 30.0682 24.3553 30.0682 28.078C30.0682 31.2654 24.6813 31.1486 24.6813 28.078C24.6813 27.1291 24.0828 26.3505 23.3188 25.8492V31.8056C26.3991 32.8129 30.0779 34.6183 30.0779 38.3654C30.0779 42.0929 26.657 44.5796 23.3188 45.3436C23.3042 48.8912 17.9173 48.8863 17.9076 45.3388C16.0098 44.9008 14.3601 44.0151 13.1679 42.8423C11.9173 41.6063 11.1777 40.054 11.1777 38.3654C11.1777 35.2266 16.5596 35.2266 16.5596 38.3654C16.5596 39.3045 17.1533 40.0783 17.9076 40.5795V34.628C14.8516 33.6402 11.1533 31.7812 11.1533 28.0683C11.1533 24.3407 14.5742 21.854 17.9076 21.09C17.9222 17.5424 23.309 17.5473 23.3188 21.0948ZM18.7202 21.1046V21.7518C15.5523 22.3796 11.9611 24.4088 11.9611 28.0683C11.9611 31.5866 15.9027 33.1633 18.7202 34.0343V41.8983C17.1971 41.2024 15.7519 40.2632 15.7519 38.3654C15.7519 36.2923 11.9854 36.2923 11.9854 38.3654C11.9854 39.8301 12.6375 41.1829 13.7373 42.2633C15.1339 43.6453 16.8273 44.3022 18.7202 44.6769V45.329C18.7202 47.8254 22.511 47.8254 22.511 45.329V44.6818C25.6886 44.0492 29.2652 42.0199 29.2652 38.3654C29.2652 34.813 25.3334 33.2849 22.511 32.3944V25.1631V24.5353C24.039 25.2312 25.494 26.1704 25.494 28.078C25.494 30.0975 29.2555 30.1802 29.2555 28.078C29.2555 24.4234 25.6837 22.3893 22.511 21.7567V21.1046C22.511 18.6082 18.7202 18.6082 18.7202 21.1046Z"
         />
      </symbol>

      <!-- Problems -->

    <symbol id="icon-fire-probl" viewBox="0 0 28 32">
    <path d="M28.731 21.831c-0.373-0.836-0.887-1.659-1.639-2.609-1.896-2.386-2.474-7.706-2.481-7.757-0.026-0.255-0.206-0.466-0.443-0.542-0.244-0.077-0.508-0.006-0.681 0.185-2.262 2.533-1.311 6.443-0.797 8.006 0.141 0.427 0.296 0.931 0.405 1.442 0.835 4.127-0.778 5.996-1.157 6.373-0.366 0.102-0.617 0.051-0.848-0.198-0.797-0.874-1.060-3.738-0.688-7.47 0.077-0.759 0.058-1.442-0.051-2.080-0.786-4.587-3.668-7.529-4.402-8.561-2.018-2.985-2.224-7.955-2.23-7.999-0.006-0.236-0.141-0.447-0.353-0.549-0.206-0.102-0.456-0.089-0.649 0.045-3.368 2.29-3.078 7.808-2.609 10.889 0.109 0.714 0.321 1.442 0.688 2.36 1.305 3.285-0.257 7.527-0.27 7.566s-0.026 0.070-0.032 0.108c-0.199 1.046-0.533 1.671-0.906 1.671-0.039 0-0.077-0.006-0.122-0.019-0.456-0.096-0.694-0.581-0.7-1.002-0.026-5.441-5.482-7.272-5.54-7.291-0.244-0.077-0.514-0.006-0.681 0.191-0.174 0.198-0.206 0.472-0.090 0.702 0.064 0.134 0.27 0.721 0.129 2.794-0.122 1.863-0.463 3.706-1.009 5.473-1.298 4.236-1.093 8.248-1.080 8.439 0.998 10.864 16.609 12.768 25.873 6.647 1.015-0.67 1.844-1.435 2.455-2.277 3.419-4.721 1.407-11.131-0.090-14.538zM4.985 32.21c0.019 0.351-0.251 0.651-0.604 0.67h-0.039c-0.341 0-0.623-0.262-0.643-0.6-0.058-0.931-0.045-1.907 0.026-2.966 0.026-0.351 0.334-0.612 0.688-0.593 0.353 0.026 0.623 0.332 0.598 0.683-0.071 1.008-0.084 1.927-0.026 2.807zM5.3 26.558c-0.039 0.325-0.315 0.561-0.636 0.561-0.026 0-0.051 0-0.084-0.006-0.347-0.045-0.598-0.357-0.559-0.708l0.308-2.462c0.045-0.344 0.36-0.593 0.72-0.555 0.353 0.045 0.604 0.364 0.559 0.714l-0.308 2.456z"></path>
    <path d="M24.384 8.727c-0.351-0.054-0.591-0.379-0.537-0.727 0.040-0.259 0.272-1.586 0.902-2.253 0.243-0.257 0.649-0.271 0.908-0.029 0.259 0.241 0.272 0.644 0.029 0.902-0.267 0.283-0.494 1.091-0.57 1.575-0.054 0.344-0.378 0.586-0.733 0.533z"></path>
    <path d="M0.955 11.905c-0.123-0.474-0.429-1.257-0.722-1.512-0.267-0.232-0.294-0.635-0.060-0.9s0.639-0.292 0.907-0.059c0.693 0.603 1.054 1.901 1.12 2.154 0.088 0.341-0.119 0.688-0.462 0.776-0.351 0.088-0.695-0.123-0.783-0.459z"></path>
    </symbol>

      <!-- How do we do it -->
      <symbol id="icon-study-program" viewBox="0 0 31 32">
         <path
            d="M30.151 4.961c0-0.001-0.001-0.001-0.001-0.002-0.007-0.016-0.015-0.031-0.024-0.045-0.001-0.001-0.002-0.002-0.002-0.003-0.010-0.015-0.021-0.029-0.034-0.042l-4.806-4.806c-0.013-0.013-0.026-0.023-0.041-0.033-0.003-0.002-0.006-0.004-0.009-0.006-0.012-0.007-0.024-0.014-0.036-0.019-0.004-0.002-0.007-0.003-0.011-0.005-0.031-0.013-0.065-0.019-0.099-0.020-0.002 0-0.004-0-0.005-0h-21.171c-0.157 0-0.284 0.127-0.284 0.284v29.311c0 0.019 0.002 0.037 0.006 0.056 0.002 0.008 0.005 0.015 0.007 0.023 0.003 0.010 0.006 0.020 0.009 0.030 0.004 0.009 0.009 0.017 0.014 0.026 0.004 0.007 0.008 0.016 0.013 0.023 0.010 0.014 0.021 0.028 0.033 0.040 0.001 0.001 0.001 0.002 0.003 0.003l2.165 2.164c0.111 0.111 0.29 0.111 0.402 0l1.964-1.963 1.964 1.963c0.055 0.056 0.128 0.083 0.201 0.083s0.145-0.027 0.201-0.083l1.963-1.963 1.965 1.963c0.111 0.111 0.291 0.111 0.402 0l1.963-1.963 1.963 1.963c0.111 0.111 0.291 0.111 0.401 0l1.965-1.963 1.964 1.963c0.055 0.056 0.128 0.083 0.201 0.083s0.145-0.027 0.201-0.083l1.963-1.963 1.965 1.963c0.111 0.111 0.291 0.111 0.401 0l2.165-2.164c0.004-0.004 0.007-0.009 0.011-0.014 0.008-0.009 0.017-0.019 0.024-0.029 0.007-0.009 0.011-0.020 0.016-0.030 0.003-0.007 0.007-0.012 0.009-0.019 0.006-0.013 0.009-0.026 0.012-0.039 0.001-0.005 0.003-0.009 0.005-0.013 0.004-0.020 0.006-0.038 0.006-0.058v-24.503c-0.001-0.037-0.008-0.074-0.023-0.109zM25.367 0.949l3.836 3.835h-3.836v-3.835zM29.604 29.456l-1.88 1.88-1.965-1.963c-0.111-0.111-0.29-0.111-0.401 0l-1.963 1.963-1.964-1.963c-0.111-0.111-0.291-0.111-0.402 0l-1.965 1.963-1.963-1.962c0-0-0-0.001-0-0.001-0.055-0.055-0.128-0.083-0.201-0.083s-0.145 0.028-0.201 0.083c-0 0-0 0-0 0l-1.963 1.963-1.965-1.963c-0.111-0.111-0.29-0.111-0.402 0l-1.963 1.963-1.964-1.963c-0.111-0.111-0.29-0.111-0.402 0l-1.965 1.963-1.88-1.88v-28.909h20.603v4.522c0 0.157 0.127 0.284 0.284 0.284h4.521l0 24.103z">
         </path>
         <path
            d="M6.314 3.234h9.303c0.157 0 0.284-0.127 0.284-0.284s-0.127-0.284-0.284-0.284h-9.303c-0.157 0-0.284 0.127-0.284 0.284s0.127 0.284 0.284 0.284z">
         </path>
         <path
            d="M6.314 4.991h14.919c0.157 0 0.284-0.127 0.284-0.284s-0.127-0.284-0.284-0.284h-14.919c-0.157 0-0.284 0.127-0.284 0.284s0.127 0.284 0.284 0.284z">
         </path>
         <path
            d="M6.030 6.568v9.199c0 0.157 0.127 0.284 0.284 0.284h21.172c0.157 0 0.284-0.127 0.284-0.284v-9.199c0-0.157-0.127-0.284-0.284-0.284h-21.172c-0.157 0-0.284 0.127-0.284 0.284zM12.308 6.852h14.893v2.445h-14.893v-2.445zM12.308 9.865h14.893v2.444h-14.893v-2.444zM12.308 12.877h14.893v2.605h-14.893v-2.605zM6.598 6.852h5.142v2.445h-5.142v-2.445zM6.598 9.865h5.142v2.444h-5.142v-2.444zM6.598 12.877h5.142v2.605h-5.142v-2.605z">
         </path>
         <path
            d="M27.486 17.329h-21.172c-0.157 0-0.284 0.127-0.284 0.284v9.198c0 0.157 0.127 0.284 0.284 0.284s0.284-0.127 0.284-0.284v-2.889h5.142v2.889c0 0.157 0.127 0.284 0.284 0.284s0.284-0.127 0.284-0.284v-2.889h14.893v2.889c0 0.157 0.127 0.284 0.284 0.284s0.284-0.127 0.284-0.284v-9.198c0.001-0.157-0.126-0.284-0.283-0.284zM11.74 23.354h-5.142v-2.443h5.142v2.443zM11.74 20.342h-5.142v-2.444h5.142v2.444zM27.201 23.354h-14.893v-2.443h14.893v2.443zM27.201 20.342h-14.893v-2.444h14.893v2.444z">
         </path>
         <path
            d="M2.281-0.021c-0.157 0-0.284 0.127-0.284 0.284v29.311c0 0.157 0.127 0.284 0.284 0.284s0.284-0.127 0.284-0.284v-29.311c0-0.157-0.127-0.284-0.284-0.284z">
         </path>
         <path
            d="M0.718-0.021c-0.157 0-0.284 0.127-0.284 0.284v29.311c0 0.157 0.127 0.284 0.284 0.284s0.284-0.127 0.284-0.284v-29.311c0-0.157-0.127-0.284-0.284-0.284z">
         </path>
      </symbol>

      <symbol id="icon-modern-teaching" viewBox="0 0 33 32">
         <path
            d="M30.175-0.128h-15.746c-1.025 0-1.859 0.834-1.859 1.859v6.518l-11.698 4.91c-0.132 0.056-0.222 0.181-0.233 0.324s0.061 0.28 0.184 0.354l1.492 0.893v9.515c-0.763 0.174-1.335 0.857-1.335 1.674v0.917c0 0.21 0.171 0.381 0.381 0.381h2.671c0.21 0 0.381-0.171 0.381-0.381v-0.917c0-0.816-0.573-1.498-1.336-1.673v-9.060l1.18 0.706c-0.036 0.272-0.005-0.474-0.017 4.43 0 1.612 4.129 2.476 8.33 2.525v7.425c0 0.384 0.117 0.74 0.318 1.036 0.334 0.494 0.9 0.82 1.54 0.82h15.746c1.024 0 1.857-0.833 1.857-1.857 0 0.051-0.002-1.573 0-28.54 0-1.011-0.836-1.859-1.856-1.859zM3.652 25.918v0.536h-1.909v-0.536c0-0.528 0.427-0.957 0.952-0.957 0.528 0 0.957 0.43 0.957 0.957zM30.175 31.364h-15.746c-0.378 0-0.712-0.191-0.909-0.482-0.118-0.175-0.187-0.385-0.187-0.612v-2.574h17.935v2.575c0 0.597-0.497 1.092-1.092 1.092zM31.267 26.935h-17.935v-4.086c2.051-0.023 8.335-0.475 8.335-2.527-0.002-3.081 0.005-4.33-0.010-4.436l3.421-2.049c0.123-0.074 0.194-0.211 0.184-0.354s-0.1-0.268-0.233-0.324l-11.698-4.91v-3.182h17.935v21.868zM12.951 17.792c-2.113 0-6.182 0.273-7.949 1.427 0.011-3.53-0.122-3.3 0.312-3.6 1.098-0.809 4.238-1.373 7.637-1.373 1.482 0 7.954 0.408 7.954 1.778v3.195c-1.784-1.165-5.832-1.428-7.954-1.428zM13.333 1.731c0-0.604 0.491-1.095 1.095-1.095h15.746c0.604 0 1.093 0.498 1.093 1.095v2.574h-17.935v-2.574zM12.951 8.915l11.090 4.655-2.748 1.644c-1.461-1.449-6.294-1.73-8.342-1.73-2.051 0-6.884 0.282-8.342 1.73l-2.749-1.645 11.091-4.655zM5.002 20.321c0-0.617 2.73-1.767 7.949-1.767 5.222 0 7.954 1.151 7.954 1.767s-2.732 1.768-7.954 1.768c-5.219 0-7.949-1.151-7.949-1.768z">
         </path>
         <path
            d="M22.301 28.271c-0.695 0-1.26 0.565-1.26 1.26s0.565 1.26 1.26 1.26c0.695 0 1.26-0.565 1.26-1.26s-0.565-1.26-1.26-1.26zM22.301 30.030c-0.275 0-0.498-0.224-0.498-0.499s0.223-0.498 0.498-0.498c0.275 0 0.498 0.223 0.498 0.498s-0.223 0.499-0.498 0.499z">
         </path>
         <path d="M23.754 2.090h-2.906v0.762h2.906v-0.762z"></path>
      </symbol>

      <symbol id="icon-open-book" viewBox="0 0 46 32">
         <path d="M20.267 4.608h-13.64v1.021h13.64v-1.021z"></path>
         <path d="M20.267 8.416h-11.597v1.021h11.597v-1.021z"></path>
         <path d="M20.267 12.224h-13.64v1.021h13.64v-1.021z"></path>
         <path d="M20.267 16.032h-11.597v1.021h11.597v-1.021z"></path>
         <path d="M20.267 19.84h-13.64v1.021h13.64v-1.021z"></path>
         <path d="M20.267 23.648h-11.597v1.021h11.597v-1.021z"></path>
         <path d="M38.99 4.608h-13.64v1.021h13.64v-1.021z"></path>
         <path d="M36.947 8.416h-11.597v1.021h11.597v-1.021z"></path>
         <path d="M38.99 12.224h-13.64v1.021h13.64v-1.021z"></path>
         <path d="M36.947 16.032h-11.597v1.021h11.597v-1.021z"></path>
         <path d="M38.99 19.84h-13.64v1.021h13.64v-1.021z"></path>
         <path d="M36.947 23.648h-11.597v1.021h11.597v-1.021z"></path>
         <path
            d="M43.915 3.445h-1.872v-2.812c0-0.282-0.229-0.511-0.511-0.511h-15.265c-1.49 0-2.781 0.805-3.458 2.011-0.678-1.206-1.97-2.011-3.459-2.011h-15.265c-0.282 0-0.511 0.229-0.511 0.511v2.812h-1.872c-0.282 0-0.511 0.229-0.511 0.511v27.411c0 0.282 0.229 0.511 0.511 0.511 5.127 0 37.068 0 42.213 0 0.282 0 0.511-0.229 0.511-0.511v-27.411c0-0.282-0.229-0.511-0.511-0.511zM26.267 1.144h14.754c0 4.573 0 16.619 0 27.35h-15.843c-0.702 0-1.405 0.296-1.859 0.68v-25.089c0-1.63 1.305-2.942 2.948-2.942zM4.596 1.144h14.754c1.597 0 2.889 1.243 2.942 2.829 0.001 0.022 0.003 0.091 0.006 0.112v25.087c-0.453-0.383-1.148-0.678-1.852-0.678h-15.85c0-10.728 0-22.779 0-27.35zM2.213 4.467h1.362v24.538c0 0.282 0.229 0.511 0.511 0.511h16.361c0.778 0 1.531 0.511 1.771 1.341h-20.005v-26.39zM43.404 30.856h-20.004c0.242-0.834 0.987-1.341 1.778-1.341h16.354c0.282 0 0.511-0.229 0.511-0.511v-24.538h1.362v26.39z">
         </path>
      </symbol>

      <symbol id="icon-support" viewBox="0 0 33 32">
         <path
            d="M1.993 12.558v2.831c0 0.152 0.070 0.295 0.189 0.39 1.935 1.523 4.363 2.362 6.837 2.362 0.74 0 1.482-0.077 2.206-0.224 1.544 0.683 3.188 1.032 4.89 1.032 1.707 0 3.351-0.349 4.89-1.032 3.091 0.624 6.384-0.046 9.042-2.138 0.12-0.094 0.189-0.238 0.189-0.39v-2.831c0-0.416-0.206-0.794-0.575-1.027l-3.867-2.176c0.846-1.073 1.476-2.602 1.586-3.913 0.321-2.256-1.518-4.646-4.166-4.646-1.113 0-2.171 0.458-2.948 1.227-0.027 0.027-0.058 0.049-0.084 0.076-0.024 0.025-0.043 0.054-0.067 0.080-0.016 0.017-0.029 0.036-0.044 0.053-0.757-1.38-2.211-2.232-3.924-2.232-0.166 0-0.33 0.011-0.492 0.028-0.010-0.001-0.018-0.006-0.028-0.006-0.092 0-0.287 0.024-0.391 0.054-0.015 0.004-0.026 0.015-0.041 0.021-1.279 0.259-2.363 1.034-3.013 2.156-0.781-0.911-1.93-1.457-3.179-1.457-3.908 0-5.642 4.612-2.557 8.581l-3.903 2.167c-0.346 0.219-0.553 0.598-0.553 1.014zM20.996 16.828c-0.084 0.041-0.167 0.085-0.251 0.123l-0 0c-0.001 0-0.001 0.001-0.002 0.001-1.452 0.667-3.009 1.006-4.627 1.006-1.614 0-3.17-0.338-4.629-1.007-0.71-0.323-1.397-0.734-2.045-1.221v-2.87c0-0.098 0.047-0.184 0.102-0.221l4.542-2.524c0.565 0.48 1.287 0.832 2.035 0.832 0.721 0 1.499-0.357 2.052-0.843l4.487 2.52c0.083 0.053 0.13 0.139 0.13 0.237v2.87c-0.571 0.429-1.173 0.795-1.794 1.098zM29.154 12.382c0.059 0.037 0.092 0.101 0.092 0.176v2.587c-1.968 1.477-4.337 2.148-6.737 1.98 0.369-0.23 0.771-0.516 1.083-0.76 0.12-0.094 0.19-0.238 0.19-0.39v-3.114c0-0.435-0.218-0.835-0.61-1.087l-2.383-1.339 0.58-0.321c0.703 0.573 1.307 0.744 1.848 0.744 0.663 0 1.36-0.325 1.878-0.759l4.060 2.284zM23.216 1.788c1.38 0 2.593 0.902 3.021 2.142-0.833-0.099-1.647-0.51-2.237-1.142-0.107-0.114-0.258-0.173-0.415-0.155-0.155 0.016-0.293 0.105-0.373 0.239-0.566 0.948-1.493 1.58-2.548 1.76 0-0.001-0-0.002-0-0.003 0.005-0.216-0.008-0.434-0.033-0.653-0.003-0.022-0.005-0.044-0.007-0.067-0.032-0.248-0.107-0.559-0.122-0.609 0.563-0.902 1.609-1.513 2.713-1.513zM20.556 5.644c1.253-0.137 2.386-0.767 3.164-1.762 0.767 0.629 1.74 1.010 2.702 1.056-0.007 1.792-1.471 4.927-3.206 4.927-1.337 0-2.479-1.912-2.905-3.238 0.108-0.341 0.187-0.669 0.245-0.983zM20.657 9.373l-0.886 0.491-0.895-0.502c0.332-0.413 0.636-0.893 0.896-1.413 0.25 0.526 0.55 1.010 0.884 1.425zM19.32 6.465c-0.478 1.427-1.705 3.49-3.199 3.49-1.742 0-3.226-2.864-3.509-4.696 0.075-0.019 2.43 0.126 4.049-2.001 0.822 0.688 1.932 1.143 3.011 1.188 0.013 0.647-0.144 1.406-0.352 2.018zM16.15 0.992c2.78 0 3.309 2.392 3.352 2.442-1.008-0.102-1.928-0.596-2.563-1.276-0.107-0.114-0.262-0.171-0.416-0.154-0.155 0.017-0.293 0.106-0.373 0.241-0.551 0.932-1.414 1.589-2.414 1.868-0.386 0.108-0.803 0.157-1.166 0.154 0.136-1.822 1.596-3.274 3.58-3.274zM12.461 7.938c0.257 0.515 0.563 1.006 0.913 1.438l-0.875 0.487-0.907-0.51c0.344-0.438 0.636-0.929 0.87-1.415zM9.006 1.788c1.125 0 2.155 0.571 2.729 1.514-0.029 0.1-0.106 0.498-0.117 0.548-0.69-0.165-1.324-0.533-1.821-1.062-0.107-0.114-0.258-0.17-0.416-0.154-0.155 0.017-0.293 0.106-0.372 0.24-0.663 1.119-1.881 1.815-3.177 1.815 0.158-1.627 1.518-2.9 3.174-2.9zM5.876 5.678c1.425-0.014 2.77-0.686 3.643-1.796 0.596 0.491 1.304 0.813 2.055 0.961 0.029 0.575 0.179 1.273 0.35 1.789-0.274 0.84-0.799 1.841-1.451 2.505-0.004 0.004-0.010 0.006-0.014 0.010-0.408 0.43-0.988 0.719-1.444 0.719-1.594 0-2.841-2.508-3.14-4.188zM2.985 12.558c0-0.075 0.033-0.139 0.067-0.162l4.116-2.284c0.247 0.206 0.304 0.229 0.353 0.265l-0 0c0.484 0.322 0.928 0.482 1.534 0.482 0.645 0 1.232-0.273 1.749-0.694 0.029-0.023 0.060-0.045 0.088-0.068l0.587 0.33-2.446 1.361c-0.366 0.236-0.584 0.636-0.584 1.071v3.114c0 0.152 0.070 0.296 0.19 0.39 0.317 0.249 0.727 0.539 1.083 0.761-2.434 0.166-4.803-0.528-6.737-1.98v-2.587z">
         </path>
         <path
            d="M31.259 20.781c-0.61-0.383-1.361-0.423-2.007-0.11l-6.119 2.956c-0.021-1.145-0.956-2.072-2.107-2.072l-3.509 0.001c-1.73-1.504-3.941-2.425-5.952-2.473-1.983-0.047-3.763-0.060-4.593-0.064v-1.002h-6.972v11.517h6.972v-1.379c1.912 1.097 6.939 3.845 9.325 3.845 0.054 0 0.107-0.001 0.158-0.004 4.196-0.235 14.091-7.198 14.743-7.661 0.638-0.37 1.034-1.056 1.034-1.796 0-0.719-0.364-1.376-0.973-1.758zM5.98 28.542h-4.988v-9.533h4.988v9.533zM30.687 23.484c-0.015 0.008-0.030 0.017-0.044 0.028-0.102 0.073-10.281 7.271-14.244 7.494-0.039 0.002-0.079 0.003-0.121 0.003-2.092 0-7.194-2.753-9.307-4.001v-6.997c0.827 0.004 2.597 0.017 4.569 0.064 1.837 0.044 3.876 0.921 5.456 2.346l0.141 0.128 3.887-0.001c0.617 0 1.119 0.502 1.119 1.119s-0.502 1.119-1.119 1.119h-7.142v0.992h7.142c0.684 0 1.288-0.333 1.674-0.839l6.984-3.373c0.343-0.167 0.725-0.146 1.049 0.057s0.508 0.537 0.508 0.918c0 0.391-0.212 0.753-0.553 0.945z">
         </path>
         <path d="M16.612 12.158h-0.992v0.92h0.992v-0.92z"></path>
         <path d="M16.612 13.992h-0.992v0.92h0.992v-0.92z"></path>
         <path d="M16.612 15.826h-0.992v0.92h0.992v-0.92z"></path>
      </symbol>

      <symbol id="icon-student" viewBox="0 0 27 32">
         <path
            d="M-0.103 31.759c3.441 0 23.348 0 26.785 0 0.133-3.055-0.086-8.122-1.964-10.535l-0.068-0.087-4.104-2.060c0.089-0.301 0.133-0.576 0.151-0.778 0.020-0.243-0.013-0.471-0.1-0.678-0.677-1.62-2.11-2.472-2.898-2.836 0.24-0.484 0.395-1.003 0.47-1.534 0.446-0.126 0.805-0.479 0.923-0.951l0.479-1.946c0.085-0.343 0.032-0.699-0.151-1.002-0.078-0.131-0.18-0.24-0.294-0.334 1.351-3.068-0.911-5.96-1.035-6.113-2.45-2.649-5.544-2.153-5.708-2.124-4.466 0.935-6.19 4.358-5.217 8.372-0.288 0.319-0.409 0.764-0.302 1.2l0.481 1.948c0.117 0.468 0.473 0.82 0.916 0.948 0.137 0.972 0.548 1.851 1.152 2.559v1.543c-6.409 3.282-2.348 1.188-7.484 3.786-0.010 0.048-2.41 2.599-2.053 10.159l0.022 0.462zM25.751 30.789h-4.408v-1.852l2.916-6.675c1.461 2.424 1.515 7.053 1.493 8.526zM19.735 18.216c-0.17 1.954-1.242 1.364-1.903 2.869-0.52-0.572-0.677-1.258-0.537-1.993 0.253-1.349-0.57-1.749-0.367-3.166l0.031-0.032v-0.005c0.018-0.020 0.18-0.213 0.227-0.274 1.744 0.76 2.584 2.174 2.55 2.6zM10.379 16.68c0.81 0.562 1.787 0.893 2.838 0.893 0.99 0 1.93-0.288 2.736-0.819 0.112 1.114 0.547 1.337 0.393 2.157-0.029 0.152-0.045 0.302-0.054 0.45l-3.002 3.384-3.838-4.327 0.926-0.484v-1.254zM9.172 12.54v-1.876c0-0.691 0-3.431 0-3.296 0.467-0.864 1.104-1.491 1.896-1.866 2.12 1.2 4.56 2.99 6.197 4.791-0.002 2.294 0.006 2.301-0.009 2.489l-0.001 0.012c-0.128 2.083-1.841 3.811-4.038 3.811-2.136 0-3.909-1.677-4.037-3.831-0.007-0.077-0.008-0.155-0.008-0.233zM8.574 18.886l4.716 5.317 3.166-3.569c0.072 0.208 0.174 0.405 0.29 0.595l-3.456 4.322-5.154-6.446 0.438-0.22zM18.23 11.759v-1.498c0.042-0.049 0.402-0.461 0.36-0.413 0.020 0.758 0.102-0.137-0.36 1.911zM12.562 1.734c0.192 0.012 2.765-0.391 4.799 1.804 0.080 0.1 1.736 2.234 1.071 4.567-0.228-1.038-0.625-2.369-1.252-3.004l-0.686 0.683c0.619 0.627 1.026 2.537 1.181 3.527-2.84-2.972-6.504-4.853-6.555-4.885-0.184 0.114-1.734 0.409-2.86 2.598l-0.054 0.105v1.607c-0.048 0.001-0.19 0.002-0.142 0.002-0.716-3.454 0.655-6.198 4.497-7.004zM7.962 9.736l0.244 0.987v1.038l-0.405-1.639c-0.059-0.244 0.122-0.337 0.161-0.386zM7.252 19.55l6.038 7.551 4.085-5.109c0.444 0.398 0.658 0.454 1.6 0.939l-0.318-1.078c-0.081-0.274 0.239-0.713 0.431-0.914 0.43-0.233 0.789-0.566 1.057-0.977l3.333 1.674-3.101 7.1v2.055h-14.176v-2.055l-3.103-7.099 4.153-2.085zM2.32 22.265l2.916 6.673v1.852h-4.408c-0.022-1.473 0.033-6.099 1.492-8.524z">
         </path>
      </symbol>

      <symbol id="icon-audio-book" viewBox="0 0 39 32">
         <path
            d="M3.048 29.453h12.23c0.62 1.285 1.917 2.116 3.38 2.116h0.772c1.465 0 2.761-0.83 3.381-2.116h12.237c1.26 0 2.286-1.025 2.286-2.286v-21.905c0-1.26-1.025-2.286-2.286-2.286h-1.234v-1.021c0-0.84-0.684-1.524-1.524-1.524h-26.491c-0.84 0-1.524 0.683-1.524 1.524v1.021h-1.227c-1.26 0-2.286 1.025-2.286 2.286v21.905c0 1.26 1.025 2.286 2.286 2.286zM32.288 24.752h-12.478v-17.705c2.884 0.377 5.121 2.845 5.121 5.831v0.687l-0.181-0.040c-0.196-0.042-0.403-0.007-0.574 0.102s-0.291 0.281-0.334 0.478l-1.213 5.519c-0.090 0.41 0.17 0.816 0.58 0.907l2.621 0.578c0.135 0.029 0.273 0.043 0.411 0.043 0.922 0 1.707-0.631 1.908-1.535l0.702-3.192c0.231-1.048-0.433-2.090-1.484-2.324l-0.912-0.201v-1.023c0-3.827-2.917-6.986-6.644-7.37v-3.551h12.48l-0.001 22.796zM25.166 15.177l1.871 0.412c0.234 0.052 0.376 0.275 0.325 0.508l-0.702 3.191c-0.051 0.231-0.306 0.374-0.507 0.331l-1.874-0.413 0.886-4.030zM5.798 1.956h12.487v3.55c-3.731 0.381-6.652 3.541-6.652 7.371v1.022l-0.914 0.202c-0.509 0.113-0.943 0.416-1.222 0.854-0.28 0.439-0.373 0.961-0.26 1.468l0.7 3.188c0.19 0.892 0.993 1.54 1.909 1.54 0.138 0 0.275-0.015 0.416-0.045l2.61-0.577c0.41-0.091 0.67-0.496 0.58-0.907l-1.213-5.519c-0.043-0.198-0.164-0.37-0.334-0.478s-0.378-0.144-0.574-0.102l-0.174 0.038v-0.686c0-2.988 2.24-5.458 5.128-5.832v17.706h-12.487v-22.796zM12.916 15.177l0.887 4.029-1.863 0.411c-0.229 0.052-0.463-0.1-0.512-0.328l-0.702-3.196c-0.025-0.111-0.005-0.224 0.055-0.319 0.061-0.096 0.157-0.162 0.268-0.187l1.867-0.412zM2.286 5.262c0-0.42 0.341-0.762 0.762-0.762h1.227v20.252c0 0.84 0.684 1.524 1.524 1.524h26.491c0.84 0 1.524-0.683 1.524-1.524v-20.252h1.234c0.42 0 0.762 0.342 0.762 0.762v21.905c0 0.42-0.342 0.762-0.762 0.762h-12.754c-0.335 0-0.63 0.218-0.728 0.538-0.289 0.943-1.147 1.577-2.135 1.577h-0.772c-0.984 0-1.841-0.631-2.138-1.586-0.101-0.315-0.394-0.529-0.725-0.529h-12.747c-0.42 0-0.762-0.342-0.762-0.762v-21.905z">
         </path>
      </symbol>

      <!--  About -->
      <symbol id="icon-check" viewBox="0 0 40 32">
         <path d="M34.457 1.514c-1.484 0.664-2.907 1.475-4.265 2.379-2.731 1.797-5.228 3.936-7.57 6.218-2.341 2.287-4.52 4.735-6.581 7.28-0.515 0.636-2.823 3.47-2.823 3.47l-9.596-14.38-3.623 10.042 12.977 15.477c1.26-2.551 2.473-5.070 3.662-7.258 0.296-0.556 0.605-1.080 0.901-1.612 0 0 1.523-2.677 1.924-3.352 1.601-2.697 3.332-5.325 5.239-7.821 1.908-2.491 3.983-4.87 6.335-6.961 1.17-1.052 2.416-2.025 3.751-2.872 1.332-0.848 2.747-1.591 4.261-2.125-1.575 0.31-3.111 0.848-4.592 1.514z">
         </path>
      </symbol>

      <!--  Guarantee -->
      <symbol id="icon-dotted-line" viewBox="0 0 2 32">
         <path d="M1 0V30" stroke-dasharray="3 2">
         </path>
      </symbol>

      <!--  Reviews -->
      <symbol id="icon-arrow-left" viewBox="0 0 54 32">
         <path d="M52 14c1.105 0 2 0.895 2 2s-0.895 2-2 2v-4zM0.586 17.414c-0.781-0.781-0.781-2.047 0-2.828l12.728-12.728c0.781-0.781 2.047-0.781 2.828 0s0.781 2.047 0 2.828l-11.314 11.314 11.314 11.314c0.781 0.781 0.781 2.047 0 2.828s-2.047 0.781-2.828 0l-12.728-12.728zM52 18h-50v-4h50v4z">
         </path>
      </symbol>

      <symbol id="icon-arrow-right" viewBox="0 0 54 32">
         <path d="M2 14c-1.105 0-2 0.895-2 2s0.895 2 2 2v-4zM53.414 17.414c0.781-0.781 0.781-2.047 0-2.828l-12.728-12.728c-0.781-0.781-2.047-0.781-2.828 0s-0.781 2.047 0 2.828l11.314 11.314-11.314 11.314c-0.781 0.781-0.781 2.047 0 2.828s2.047 0.781 2.828 0l12.728-12.728zM2 18h50v-4h-50v4z">
         </path>
      </symbol>

      <symbol id="icon-vk" viewBox="0 0 53 32">
         <path d="M45.901 20.1c1.769 1.727 3.636 3.352 5.223 5.254 0.701 0.845 1.364 1.717 1.872 2.698 0.719 1.394 0.068 2.928-1.182 3.011l-7.77-0.004c-2.004 0.166-3.603-0.64-4.947-2.011-1.076-1.096-2.072-2.262-3.106-3.395-0.424-0.463-0.868-0.898-1.398-1.243-1.061-0.689-1.981-0.478-2.587 0.628-0.617 1.125-0.758 2.371-0.818 3.625-0.083 1.829-0.636 2.311-2.474 2.394-3.928 0.185-7.655-0.409-11.118-2.39-3.053-1.747-5.42-4.213-7.481-7.004-4.012-5.436-7.084-11.409-9.845-17.549-0.622-1.383-0.167-2.126 1.359-2.152 2.535-0.049 5.069-0.046 7.607-0.004 1.030 0.015 1.712 0.606 2.11 1.579 1.371 3.372 3.049 6.58 5.156 9.554 0.561 0.792 1.133 1.583 1.947 2.141 0.901 0.617 1.587 0.412 2.011-0.591 0.269-0.636 0.387-1.322 0.447-2.004 0.201-2.345 0.227-4.686-0.125-7.023-0.216-1.458-1.038-2.403-2.493-2.679-0.743-0.141-0.632-0.417-0.273-0.841 0.625-0.731 1.212-1.186 2.383-1.186h8.781c1.382 0.273 1.689 0.894 1.879 2.285l0.007 9.754c-0.015 0.538 0.269 2.136 1.239 2.493 0.776 0.254 1.288-0.367 1.754-0.86 2.102-2.231 3.603-4.868 4.943-7.599 0.595-1.201 1.106-2.448 1.602-3.694 0.367-0.924 0.944-1.379 1.985-1.359l8.451 0.008c0.251 0 0.504 0.004 0.747 0.045 1.424 0.243 1.814 0.855 1.375 2.246-0.693 2.182-2.041 4-3.36 5.827-1.409 1.95-2.917 3.834-4.314 5.795-1.284 1.792-1.182 2.695 0.413 4.251z">
         </path>
      </symbol>

      <!--  Footer -->
      <symbol id="icon-phone" viewBox="0 0 33 32">
         <path d="M4.817 0.003c-0.533 0.025-1.056 0.252-1.44 0.674l-2.684 2.95c0.004-0.009-0.010-0.007-0.087 0.1-0.041 0.055-0.072 0.117-0.093 0.182-1.092 3.48-0.36 7.308 1.424 10.949s4.63 7.125 7.897 9.984c3.267 2.859 6.953 5.096 10.468 6.205s6.922 1.095 9.448-0.737c0.027-0.020 0.053-0.043 0.077-0.067 0.066-0.066 0.068-0.075 0.058-0.065l0.010-0.013 2.671-2.938c0.768-0.844 0.706-2.17-0.138-2.938l-6.337-5.763c-0.844-0.768-2.17-0.706-2.938 0.137l-2.867 3.153c-2.327-0.674-4.317-1.816-6.231-3.557s-3.24-3.615-4.131-5.869l2.866-3.153c0.768-0.844 0.706-2.17-0.137-2.938l-6.337-5.763c-0.422-0.384-0.965-0.561-1.498-0.535l-0.001 0zM4.878 1.296c0.196-0.009 0.396 0.059 0.559 0.208l6.337 5.763c0.326 0.297 0.349 0.771 0.052 1.097l-3.169 3.482c-0.080 0.088-0.134 0.196-0.156 0.313s-0.013 0.237 0.027 0.348c0.962 2.624 2.513 4.777 4.648 6.719s4.423 3.283 7.126 3.992c0.115 0.030 0.236 0.028 0.35-0.006s0.217-0.098 0.297-0.186l3.169-3.483c0.297-0.326 0.77-0.348 1.096-0.051l6.338 5.763c0.326 0.297 0.348 0.77 0.051 1.096l-2.649 2.912c-2.072 1.488-4.992 1.571-8.262 0.539-3.282-1.036-6.846-3.182-9.999-5.942s-5.898-6.131-7.585-9.573c-1.67-3.407-2.275-6.852-1.357-9.888l2.588-2.844c0.148-0.163 0.342-0.251 0.538-0.26l0 0z">
         </path>
      </symbol>

      <symbol id="icon-inst" viewBox="0 0 32 32">
        <path fill="#fff" style="fill: var(--color1, #fff)" d="M0.528 10.029c0.103-0.724 0.181-1.452 0.311-2.171 0.739-4.072 3.622-6.842 7.743-6.984 4.963-0.171 9.941-0.18 14.903-0.001 4.486 0.161 7.735 3.483 7.875 7.971 0.149 4.765 0.149 9.542 0 14.307-0.14 4.488-3.388 7.809-7.875 7.971-4.962 0.179-9.941 0.184-14.903-0.003-4.487-0.169-7.589-3.498-7.889-7.992-0.026-0.389-0.109-0.774-0.166-1.161 0-3.979 0-7.958 0-11.937zM16.004 28.463c2.271 0 4.544 0.068 6.812-0.016 3.556-0.132 5.743-2.254 5.826-5.806 0.103-4.426 0.103-8.859 0-13.286-0.083-3.552-2.272-5.723-5.826-5.799-4.511-0.095-9.028-0.095-13.539 0-3.527 0.074-5.721 2.202-5.817 5.714-0.122 4.482-0.122 8.973 0 13.455 0.096 3.512 2.289 5.591 5.817 5.721 2.239 0.083 4.484 0.016 6.727 0.016z"></path>
        <path fill="#fff" style="fill: var(--color1, #fff)" d="M15.999 8.115c-4.355 0-7.885 3.53-7.885 7.885s3.531 7.885 7.885 7.885c4.355 0 7.885-3.53 7.885-7.885s-3.53-7.885-7.885-7.885zM15.999 21.17c-2.856 0-5.17-2.315-5.17-5.171s2.315-5.17 5.171-5.17c2.856 0 5.171 2.315 5.171 5.171s-2.315 5.171-5.171 5.171z"></path>
        <path fill="#fff" style="fill: var(--color1, #fff)" d="M26.222 7.755c0 1.036-0.84 1.876-1.876 1.876s-1.876-0.84-1.876-1.876c0-1.036 0.84-1.876 1.876-1.876s1.876 0.84 1.876 1.876z"></path>
      </symbol>

      <!-- Modal -->
      <symbol id="icon-modal-phone" viewBox="0 0 20 32">
         <path d="M17 0H3C1.346 0 0 1.346 0 3v26c0 1.654 1.346 3 3 3h14c1.654 0 3-1.346 3-3V3c0-1.654-1.346-3-3-3zM3 2h14a1 1 0 011 1v21H2V3a1 1 0 011-1zm14 28H3a1 1 0 01-1-1v-3h16v3a1 1 0 01-1 1z" />
      </symbol>

      <symbol id="icon-modal-close" viewBox="0 0 18 18"><path d="M15 4.108L13.892 3 9.5 7.392 5.108 3 4 4.108 8.392 8.5 4 12.892 5.108 14 9.5 9.608 13.892 14 15 12.892 10.608 8.5 15 4.108z"/></symbol>

      <symbol id="icon-send" viewBox="0 0 24 24"><path fill="#fff" d="M24 0L0 13.5l7.67 2.84L19.5 5.25l-8.998 12.14.007.002-.009-.002V24l4.301-5.018L20.251 21 24 0z"/></symbol>

      <symbol id="icon-mail" viewBox="0 0 18 18"><path d="M15 3H3c-.825 0-1.492.675-1.492 1.5l-.008 9c0 .825.675 1.5 1.5 1.5h12c.825 0 1.5-.675 1.5-1.5v-9c0-.825-.675-1.5-1.5-1.5zm-.3 3.188L9.398 9.502a.759.759 0 01-.796 0L3.3 6.188a.637.637 0 11.675-1.08L9 8.25l5.025-3.143a.637.637 0 11.675 1.08z"/></symbol>

      <symbol id="icon-handset" viewBox="0 0 18 18"><path d="M13.996 11.123l-1.838-.21a1.44 1.44 0 00-1.187.412l-1.332 1.332a10.888 10.888 0 01-4.769-4.77L6.21 6.55a1.44 1.44 0 00.412-1.187l-.21-1.824a1.448 1.448 0 00-1.44-1.28H3.72c-.818 0-1.498.68-1.448 1.497.384 6.18 5.327 11.116 11.5 11.5.817.05 1.498-.63 1.498-1.448v-1.252a1.434 1.434 0 00-1.274-1.432z"/></symbol>

      <symbol id="icon-person" viewBox="0 0 18 18">
         <path d="M10 9C11.6575 9 13 7.6575 13 6C13 4.3425 11.6575 3 10 3C8.3425 3 7 4.3425 7 6C7 7.6575 8.3425 9 10 9ZM10 10.5C7.9975 10.5 4 11.505 4 13.5V14.25C4 14.6625 4.3375 15 4.75 15H15.25C15.6625 15 16 14.6625 16 14.25V13.5C16 11.505 12.0025 10.5 10 10.5Z"/>
      </symbol>

      <symbol id="icon-checkbox" viewBox="0 0 16 15"><path stroke="#fff" stroke-width=".2" d="M3.957 7.752l-.069-.066-.069.065-.888.842-.076.072.076.073 3.496 3.334.069.066.069-.066 7.504-7.158.076-.073-.076-.072-.882-.841-.069-.066-.069.066-6.553 6.246-2.539-2.422z"/></symbol>   

   </defs>
</svg>