<svg width="15" height="20" viewBox="0 0 15 20" fill="none" xmlns="http://www.w3.org/2000/svg">
<g clip-path="url(#clip0_1_2148)">
<path d="M13.6931 10.3705C13.5159 9.97356 13.2715 9.58265 12.914 9.13114C12.0126 7.9978 11.7376 5.47053 11.7345 5.44629C11.7223 5.32508 11.6367 5.22508 11.5237 5.18871C11.4076 5.15235 11.2823 5.18568 11.1998 5.27659C10.1242 6.47962 10.5765 8.3372 10.8209 9.07962C10.8881 9.28265 10.9615 9.52205 11.0134 9.76447C11.4106 11.7251 10.6437 12.613 10.4634 12.7917C10.2892 12.8402 10.17 12.816 10.06 12.6978C9.68116 12.2827 9.55588 10.922 9.7331 9.14932C9.7698 8.78871 9.7606 8.46447 9.70866 8.16144C9.3349 5.98256 7.96449 4.58493 7.6156 4.09477C6.65616 2.67659 6.55838 0.315986 6.55533 0.294774C6.55227 0.182653 6.48811 0.0826526 6.38727 0.0341677C6.28949 -0.0143171 6.17033 -0.00825651 6.07866 0.0553798C4.47755 1.14326 4.61505 3.76447 4.83811 5.22811C4.89005 5.5675 4.99088 5.91296 5.16505 6.34932C5.78533 7.90993 5.04283 9.92508 5.03672 9.94326C5.03061 9.96144 5.02449 9.97659 5.02144 9.99477C4.92672 10.4917 4.76783 10.7887 4.59061 10.7887C4.57227 10.7887 4.55394 10.7857 4.53255 10.7796C4.31561 10.7342 4.20255 10.5039 4.19949 10.3039C4.18727 7.71902 1.59311 6.84932 1.56561 6.84023C1.44949 6.80386 1.32116 6.8372 1.24172 6.93114C1.15922 7.02508 1.14394 7.15538 1.19894 7.26447C1.22949 7.32811 1.32727 7.60689 1.26005 8.59174C1.20199 9.47659 1.04005 10.3523 0.780328 11.1917C0.163106 13.2039 0.260884 15.1099 0.266995 15.2008C0.741614 20.3617 8.16374 21.266 12.5687 18.3584C13.0514 18.0402 13.4456 17.6766 13.7359 17.2766C15.3615 15.0342 14.4051 11.9887 13.6931 10.3705ZM2.40286 15.3008C2.41203 15.4675 2.28369 15.6099 2.11564 15.619H2.0973C1.93536 15.619 1.80091 15.4948 1.79175 15.3342C1.76425 14.8917 1.77036 14.4281 1.80397 13.9251C1.81619 13.7584 1.96286 13.6342 2.13091 13.6432C2.29897 13.6553 2.4273 13.8008 2.41508 13.9675C2.38144 14.4463 2.37536 14.8827 2.40286 15.3008ZM2.55255 12.616C2.53422 12.7705 2.40283 12.8827 2.25005 12.8827C2.23783 12.8827 2.22561 12.8827 2.21033 12.8796C2.04533 12.8584 1.92616 12.7099 1.94449 12.5433L2.09116 11.3736C2.11255 11.2099 2.26227 11.0917 2.43338 11.1099C2.60144 11.1311 2.72061 11.2827 2.69922 11.4493L2.55255 12.616Z" fill="#FF6B09"/>
<path d="M11.626 4.14578C11.4594 4.12017 11.3451 3.96572 11.3708 3.80044C11.3899 3.67732 11.5003 3.04702 11.7999 2.73008C11.9152 2.60787 12.1083 2.6015 12.2318 2.71632C12.3549 2.83069 12.3612 3.02247 12.2457 3.14469C12.1189 3.2789 12.0108 3.66299 11.9747 3.89281C11.949 4.05632 11.7952 4.17108 11.626 4.14578Z" fill="#FF6B09"/>
<path d="M0.486534 5.65524C0.428051 5.42988 0.282729 5.05821 0.143243 4.93688C0.0162845 4.82648 0.00360387 4.63503 0.114887 4.50927C0.225896 4.38321 0.418793 4.37033 0.546057 4.48115C0.875323 4.76745 1.04735 5.38403 1.07855 5.5046C1.12032 5.66664 1.02187 5.83145 0.85864 5.87318C0.691807 5.91479 0.528121 5.81457 0.486534 5.65524Z" fill="#FF6B09"/>
</g>
<defs>
<clipPath id="clip0_1_2148">
<rect width="14.6667" height="20" fill="white"/>
</clipPath>
</defs>
</svg>
